<?xml version="1.0" standalone="no"?>
<svg id="svg"  xmlns="http://www.w3.org/2000/svg" viewBox="0 0 1440 320">
    <path fill="#ff5500" fill-opacity="1" d="M0,192L40,176C80,160,160,128,240,149.3C320,171,400,245,480,256C560,267,640,213,720,186.7C800,160,880,160,960,170.7C1040,181,1120,203,1200,192C1280,181,1360,139,1400,117.3L1440,96L1440,320L1400,320C1360,320,1280,320,1200,320C1120,320,1040,320,960,320C880,320,800,320,720,320C640,320,560,320,480,320C400,320,320,320,240,320C160,320,80,320,40,320L0,320Z">
    </path>
</svg>